<svg xmlns="http://www.w3.org/2000/svg" viewBox="16.26 110.93 177.48 75.13" xmlns:v="https://vecta.io/nano"><path d="M129.993 110.933c-.701-.011-1.441.325-1.794.628h-.03l-18.195 21.051c-.441.355-.742.904-1.181 1.256l-.628-.583-.045-.015-.045-.045c-2.459-2.445-5.657-2.519-7.535-4.216-.712-.643-2.19-.732-2.945-.733l-.463.015c-.063 0-.096.038-.12.105a.62.62 0 0 0-.344.015c-2.982 2.993-5.2 6.644-7.804 9.957a10.55 10.55 0 0 0-.703-.553c-1.72-1.374-3.828-2.124-5.607-3.394.507-.971-.818.309-.942.777-1.313 1.261-2.099 3.372-3.14 4.68-2.313 4.661-5.119 8.256-8.088 12.245a17.38 17.38 0 0 1-.658-1.405c-2.077-5.134-15.283-14.995-16.626-15.863-.238-.143-.612-.187-1.002-.179a5.93 5.93 0 0 0-1.047.12c-.034-.005-.07-.015-.105-.015-.726 0-2.933 2.692-6.459 7.834-2.955 4.309-8.804 9.88-16.745 15.968-3.723 2.854-5.502 4.521-5.502 5.158 0 .751-5.555 9.484-5.532 10.481-.277.461-.449.839-.449 1.076 0 .203 2.53-2.145 5.622-5.218 1.834-1.823 2.485-.593 4.321-2.467.503-.513 2.032-.535 2.407-1.241 1.971-3.709 4.882-7.25 7.939-9.942 1.295-1.14 2.725-1.749 3.977-2.377-.425 1.322-.762 2.841-.972 4.47-.75 5.812-.597-.807-1.42-2.362-.376-.71-3.036 2.222-6.608 6.728-.644.812-1.031 3.064-1.749 3.857-.994 1.098-6.12 2.857-7.206 3.798-3.268 2.829-2.462 4.053-2.781 4.082-.266.024.107.492.822 1.032.407.307 12.93-7.165 14.966-8.373-8.207 4.981-12.42 8.934-11.183 8.702 3.428-.645 6.023-.732 7.386-1.181 1.724-.569-.381 2.621 3.394 1.241 2.758-1.008 3.895-9.307 4.605-10.839.233-.504.731-3.287 1.106-6.19.522-4.04.832-5.092 1.286-4.485.385.515-.648 4.352-1.39 8.193-.635 3.285-.988 6.576-.942 7.804.029.768-1.093 1.887-1.54 3.274-.642 1.993-.627 4.229-.164 4.216.538-.015 4.631-6.421 4.336-3.648-.394 3.703-.507 6.808-.254 6.908.874.344 1.118-.317 1.42-3.842.419-4.895 1.426-7.892 3.917-11.647 1.626-2.451 1.905-3.151 1.196-2.96-.528.142-1.567 1.153-2.407 2.332-.814 1.142-1.545 2.06-1.63 2.048s-.07-1.694.03-3.738c.234-4.787 1.648-12.342.239-13.889-.037-.041-.067-.084-.105-.12 1.783-3.108 3.157-6.816 2.945-7.027-.804-.804-4.756 7.452-10.271 11.004-3.118 2.008-4.385 2.665-3.11 1.615 4.354-3.585 8.857-8.692 12.245-13.889 1.912-2.933 3.689-5.468 3.962-5.636.048-.03.11-.026.164-.015.139.223.346.47.598.748a4.41 4.41 0 0 1 .194.538c.327 1.135.462 1.287.493.538l.254.763c-.075.105-.135 1.778-.135 4.605 0 4.111.106 5.793.239 3.738a70.23 70.23 0 0 0 0-7.476c-.031-.486-.062-.752-.09-.837l.508 1.51c.671 1.996 1.807 6.379 2.512 9.733s1.538 6.173 1.869 6.265c.345.095.235-2.072-.269-5.083l-.882-5.248 1.136 2.482c1.079 2.356 2.286 5.421 3.499 8.746a13.81 13.81 0 0 0 .523 1.45c4.135 11.596 8.115 25.716 6.922 25.895-.234.035-2.483-3.059-4.994-6.877-5.374-8.174-10.926-13.571-10.361-11.408-.415 6.655-7.226 12.789-6.504 13.934.778 1.232 8.448-.861 10.66 2.856s10.32 2.883 10.87 3.289c2.644 1.953 2.501-3.499-.359-12.992-1.162-3.858-2.519-7.921-3.917-11.901.751.387 1.656.538 2.781.374.377-.055-2.902-9.304-1.944-9.479.758-.139 5.772 8.804 6.13 8.657.658.733 1.825 2.705 2.587 4.381 1.468 3.232 6.378 11.815 6.967 12.17.192.116-.484-1.296-1.495-3.125a115 115 0 0 1-3.349-6.668l-1.525-3.334 1.45.748c.794.41 9.159 11.451 9.434 11.228.629-.508-9.949-15.783-13.785-22.785.41-.423.804-.865 1.286-1.181 1.4-1.257 3.096-2.957 4.635-4.829.751.514 11.661 8.009 13.65 10.989.798 1.207 1.606 2.505 2.557 2.975 3.361 1.523 3.326 8.765 6.743 9.105.4.141 4.272-6.767 4.665-6.519a5.04 5.04 0 0 1 .344.463 14.93 14.93 0 0 1-.314-1.944c-.354-.529-4.814 4.958-5.248 4.769-2.905-.448-1.907-6.105-4.784-7.176-1.237-.259-2.403-1.426-3.439-2.96-2.105-3.401-4.241-6.794-6.13-10.825.534.036 1.103.002 1.301-.135.081-.983-1.213-.998-1.51-1.809-1.189-1.918-.85-4.249-1.286-6.384l.149.105c1.244 1.865 4.108 4.532 5.173 5.607 2.282 2.302 3.823 2.789 4.291 2.243.859 1.181 1.672 2.382 2.273 3.723.701.53-1.038 1.843.359 1.854.605.125 1.709.428 2.033-.269-.972-2.462-2.618-4.6-4.171-6.728-.994-1.311-1.894-2.723-2.945-3.992-.494-.855-.1-1.8.598-2.392 1.502-2.063 3.011-4.129 4.665-6.07.656-.366 1.731-.467 2.048-1.211.244.4.656 1.504 1.002 2.736.832 2.964 1.391 3.603 5.412 6.19 1.086.699 2.083 1.515 2.646 2.108.025 1.077.083 2.13.15 3.08a21.97 21.97 0 0 1-.449 1.42c-2.134 5.956-2.165 6.103-1.196 7.401 1.29 1.728 2.158 1.867 1.301.209-.811-1.569-.891-2.009.135-4.665.296.676.665 1.319.972 1.988a14.89 14.89 0 0 0 3.678 4.5 33.09 33.09 0 0 0 .957 2.273c2.544 5.434 6.153 11.8 7.49 13.232.692.741 1.81 1.577 2.482 1.869 1.186.516 1.169.449-.164-2.736-1.651-3.943-4.169-8.373-6.414-11.617l4.844 3.14c.717.42 1.342.968 2.063 1.375.646.302 1.288-.164 1.435-.807.248-.643.867-.963 1.241-1.51.572-.804.883-1.736 1.166-2.676.287-.539.55-1.1.927-1.57l2.512-4.097c.055-.017.109-.044.164-.06.275-.127.464-.615.389-.837l13.545-22.113c.213-.147.656-.673.688-1.017.314-.624.549-1.328.927-1.884a19.95 19.95 0 0 1 3.005-4.037c.103-.104.209-.199.314-.299-1.779 3.22-3.161 6.153-5.069 9.434-.443.565-7.82 17.394-8.104 18.106-.173 2.109 3.461-1.544 5.397-5.024-1.422 3.532-3.613 8.33-3.678 9.957.024 3.188 5.122-.132 4.919 3.05-.144.732.59.135.673-.224.274-.735.171-1.541.329-2.302.191-1.373.251-2.779.493-4.141.356-1.108 1.128-2.04 1.346-3.2l1.6-5.876c-.225 2.53-.215 5.093.224 7.595l-1.211 3.259c-.631.344.077 1.393.658 1.076.597-.701.723-1.624.957-2.497.5 1.764 1.413 3.453 2.901 4.56.602.445 1.471.802 2.183.404.653-.424.459-1.564-.269-1.794-.627-.422-.779-1.272-.568-1.959.236-1.492.056-3.038.493-4.5.305-1.46.964-2.808 1.51-4.186.263-.649 1.076-1.028 1.66-.538.531.412 1.027 1.073 1.779 1.002.901-.042 1.496-.9 1.66-1.719.567-2.258-.193-4.602-1.256-6.593-1.071-2.02-2.303-3.938-3.439-5.921-.929-3.046-1.45-6.017-1.734-5.712.154-.259.337-.497.538-.718 1.109 2.913 1.747 7.641 3.484 8.373a27.69 27.69 0 0 1 2.826 1.361c.714.759-.249 1.577-.822 2.003-.33.914.891 1.429 1.525.837.928-.469 1.589-1.784.867-2.691-1.046-1.535-2.463-3.543-4.052-4.351-.997-.416.953-7.695-.075-8.029-.937.435-2.894-3.917-2.317-4.799.197-.362 1.852.507 3.902 1.959-.701-.176-2.736-1.306-2.527-.658.076.77 1.184 2.111 1.794 3.708.821 2.152.171 5.685.434 6.683 1.456 4.338 5.718 6.133 8.702 9.598 1.022 1.178 2.261 2.394 2.362 4.052.201 1.284.148 2.638.703 3.842-.17-1.326.271-2.646.194-3.977.088-1.902.194-4.041-1.091-5.607-1.789-2.428-2.534-6.485-4.231-8.985-1.056-1.556-1.69-3.61-2.392-5.517a39.29 39.29 0 0 1 1.675 1.57c2.676 2.665 4.278 7.183 4.545 8.088.445-.002 5.531 4.07 11.004 8.432a18.27 18.27 0 0 0-1.525-.658l-.045.12c-.104.698-.1 1.649-.867 1.974-.811.332-1.549.815-2.243 1.346-.257.691.421 1.197.912 1.54 1.153.832 1.733 2.348 3.14 2.841 1.651.916 3.578 1.653 4.56 3.379.459.763.807 1.603 1.151 2.422-.135-.944.717-1.79.389-2.736l-.493-4.126c-.542-.629-.426-1.502-.598-2.258-.176-.213-.316-.456-.434-.703 5.655 4.467 10.691 8.305 10.271 7.176-.35-.942-27.646-26.434-28.736-28.003-.732-.579-2.072-1.527-3.573-2.527l-.015-.015c-.088-.134-.263-.22-.463-.299-3.04-1.996-6.625-4.096-7.7-3.962-.194-.088-.307-.137-.389-.105-.244.097-.318.903-2.243 3.409-.581.756-1.36 1.703-2.138 2.646a22.79 22.79 0 0 0-1.076 1.017c-.506.55-.967 1.194-1.405 1.854-1.679 3.239.54-1.571-2.063 2.796-.036.259-.101.52-.15.777-.959 1.994-2.48 5.481-3.2 5.98-1.001.852-2.189 3.062-3.394 3.663-.912-.083.039.207-.389.658-1.139 2.876-2.031 4.893-3.573 7.58-1.361 2.46-3.085 4.775-4.799 7.087-1.116.498-2.336.767-3.543.568-1.28-2.114-2.474-4.286-3.678-6.444-1.715-2.547-4.228-4.374-6.324-6.578l-4.53-4.47c.431-.784.854-1.756 1.226-1.959l5.173-5.935-.075.658c-.031.761.364 1.551.897 1.63-.051.107-.082.186-.15.314a9.34 9.34 0 0 1 .194-.314c.021.001.039.016.06.015.107.018-1.871 3.708-1.764 3.693l2.093-3.693c1.573-.42 2.005 8.985 3.304 7.685.507-.549 1.923-11.795 2.362-12.454.36-.356.91-.038 1.032.553.249.835.669 1.707 1.316 1.929.307.056.562.32.733.688-.301-.605-.13-1.49-.508-2.033-.422-.378-.695-1.071-.673-1.794.004-.717.094-1.431.164-2.138a9.52 9.52 0 0 1 .105-.583c.049-.031.081-.04.135-.075.548-.66 1.02-.56 1.435-.164a36.65 36.65 0 0 1 .135 1.689c-.118 2.453-.358 4.887-.568 7.311-.154 2.47-.74 4.692-1.405 6.728-.128.597-.526.972-.478 1.704.064.248.197-.038.239-.179.484-1.14.917-2.364 1.331-3.618.739-2.351 1.857-4.189 2.362-6.847.176-1.612.509-3.117.852-4.605 1.797-1.168 5.957-5.568 6.399-4.665 2.187 4.468.677 2.037 4.695 6.04 1.665 2.759.436-.607-.105-1.839-2.66-2.785.461.526-2.168-2.287-2.122-4.869-5.341-8.23-7.52-9.434a.46.46 0 0 0-.179-.06c-.279-.245-.624-.353-.987-.359zm38.499 20.02c-.05 0-.043.041.03.15-.006-.027-.012-.09-.03-.15zm-63.78 32.997c.352 1.564.665 1.067 0 0zm26.433-52.178c.01.012.019.017.03.03 1.524 1.813 5.502 6.01 5.113 5.906-.377-.101-3.143-.026-3.514-.703-.34-.621-1.564-.765-2.003-1.779-.378-.872.336-2.596.374-3.454zm-3.065.209c.018.009.035.023.06.03-.024-.003-.05-.002-.075 0l.015-.03zm-1.734 2.512c-.797 1.727-1.6 3.847-2.198 4.725 1.456-.971 5.224-3.149 4.306-2.557-1.45 1.073-4.591 2.983-6.055 4.037-.225-.753.474-1.314.837-1.884.866-1.578 2.015-2.924 3.11-4.321zm-2.198 4.725c-.513.342-.742.537-.374.404.112-.047.236-.202.374-.404zm26.912 1.974c.304.015.575.158.822.389-.015.034-.025.073-.045.105-.032.087-.046.184-.045.269-.254-.233-.497-.513-.733-.763zm-28.407.613c-1.278.897-3.148 2.689-4.739 5.651a3.01 3.01 0 0 0-.179.404c-.084-.288-.095-.613.06-.867a.76.76 0 0 0-.06-.628c.479-.497.967-.986 1.465-1.465 1.33-.725 1.551-2.515 2.945-2.99.191-.043.353-.083.508-.105zm1.181.075c.135.046.243.102.344.15-.069.129-.129.256-.209.374-.369.647-.822.994-1.301 1.271.51-.731.911-1.343 1.166-1.794zm28.572 2.422c-.101.275-.161 1.095-.209 2.661-.577.682-1.112 1.401-1.585 2.153a113.36 113.36 0 0 1 1.241-3.648c.159-.397.339-.792.553-1.166zm.314 5.278c-.288.964-1.601 6.428-2.093 6.728-.13.89-.057 1.956.733 2.527.222.313 3.005-2.837 2.901-2.781-1.174 1.605-2.526 4.086-2.96 4.814-.009-.186-.072-.324-.299-.239-.998.492-1.236 1.683-1.615 2.631.009-.169.01-.339.015-.508l.374-4.56c-.26-.894.388-1.687.613-2.512.243-.555 1.675-6.129 2.332-6.1zm-53.57 1.226l2.302.658c-.094.138-.067.155.03.015l1.271.359c1.817.523 4.374 1.91 3.678 1.839l1.48.15c.037.192.128.382.254.553-.134.111-.249.256-.359.419-.043-.07-.114-.141-.194-.224-.614-.813-2.59-.909-3.274-1.211-1.566-.055-3.075-.559-4.575-1.151l-.045-.015-.568-1.39zm.613 1.405c-.007.003.019.009.135.015.068-.003.082-.013.105-.015a3.14 3.14 0 0 0-.239 0zm.837-.135c-.011 0-.019.017-.03.03.086.02.063-.031.03-.03zm-.209 2.168c.43.129.879.07 1.286.06.671 1.634 1.904 3.382 4.351 3.753.162.482.501 1.484.837 1.017l-.015.463c-.749-.556-1.764-1.229-2.766-1.824-2.532-1.504-3.25-2.083-3.693-3.469zm61.105 1.405l.553 2.437c-.1-.37-.751-.631-1.062-.852-.446-.317-.281-.408.015 1.256.004 1.319.666 2.24.538 3.558-.333 2.165-2.415 2.363-3.528 4.306-.924 1.179.693 6.647-.658 6.354-.684-.191-3.284-3.457-3.11-2.437.111.63.736.929 1.286 1.076 2.512 1.194-1.859 9.865-.105 12.006.671.798 1.278 1.658 1.854 2.527.278 1.004-.954 1.266-1.66 1.375-.718.654.12 1.708.957 1.48 1.039.018 2.234-.85 2.018-1.988-.21-1.845-1.512-3.284-2.542-4.739-.688-.833 5.089-8.465 4.336-9.239-1.031-.052-1.475-1.656-.553-2.168.642-.427 4.819 3.232 6.399 8.298.681 2.183.691 4.772.553 6.698.565-1.356 1.459-2.543.882-7.251-.145-1.182-4.556-6.305-5.009-9.927-.534-4.274 3.255-2.94 2.542-5.935-1.151-4.831-2.246-4.036-2.601-4.5-.112-.135-.916-2.292-1.106-2.332zm-78.52.404c.687.161 1.421.282 1.63.463 2.013 1.137 3.332 2.151 4.575 3.708-1.504-1.082-3.471-2.202-5.98-3.214-.004-.015-.011-.03-.015-.045-.078-.282-.135-.601-.209-.912zm27.211.493c.729.814 1.432 1.652 2.063 2.542l-.733-.523c-.24-.172-.772-1.08-1.331-2.018zm-28.467 1.106c.019-.137.83 1.604.792 2.467-.267-.729-.552-1.438-.852-2.093l.105-.179a.61.61 0 0 1-.045-.194zm95.658.374c-.013.004-.013.026.03.03.01-.019-.017-.034-.03-.03zm-95.778.12c.334 1.362-1.054 3.627-2.467 5.502 1.177-1.918 1.582-3.91 2.467-5.502zm-26.478 1.39c.356.488.717.996 1.091 1.465 1.605 2.027 2.387 4.968 2.975 7.984-1.482-3.718-2.884-6.981-4.067-9.449zm58.488 1.749a16 16 0 0 1 .493 1.032c-.818 1.044-1.726 3.382-1.435 5.696.272 2.164 1.789 4.156 2.811 6.773.614 1.571-3.854-5.203-3.827-7.476.01-.841 1.154-3.142 1.719-4.934.125-.396.2-.767.239-1.091zm52.403.254c-.157-.032-.156.64.09 2.033.212 1.203.167 2.953-.105 3.887-.604 2.082.714 5.109 1.824 4.186.359-.298.614-1.214.568-2.033-.077-1.373.01-1.464 1.017-1.226.6.142 1.409.092 1.794-.12.917-.504.963-.384 1.66 4.126.498 3.224.466 3.776-.254 3.394-.805-.427-.863-.393-.763.449.059.494.498 1.314.972 1.824.576.619 1.08.745 1.51.389.777-.643-.075-8.274-1.241-11.153l-.777-1.944-1.106.957c-.918.804-1.316.862-2.377.299s-1.385-1.05-1.914-2.871c-.414-1.428-.74-2.166-.897-2.198zm-15.041.359c-.424 1.768-.824 3.546-1.331 5.292-.19.579-.413 1.856-.568 2.003-.084-.858-.052-1.717.015-2.572.558-1.601 1.16-3.191 1.884-4.725zm26.269 1.047c.018-.006.039-.007.06 0 1.874.637 2.966 2.396 4.381 3.663.528.519 1.103 1.009 1.615 1.54-.716.295-1.104-.651-1.615-.972-1.464-1.42-2.83-2.947-4.53-4.097.002-.054.037-.117.09-.135zm-62.062 2.198c.483 1.347.93 2.707 1.375 4.067-.549-.866-.991-1.708-1.136-2.422-.108-.531-.177-1.093-.239-1.645zm-7.939 2.542c.009.089.017.18.03.269-.028-.046-.064-.088-.09-.135.02-.049.04-.084.06-.135zm20.498 5.502l-1.42 1.959c-.123-.285-.258-.557-.493-.763-.114-.178-.217-.359-.329-.538.234.019.473.022.703-.06.542-.128 1.041-.359 1.54-.598zm-96.868 6.638c.192-.076-.338.393-1.45 1.346a128.48 128.48 0 0 0-5.712 5.203c1.855-2.203 3.551-4.14 4.276-4.635l2.886-1.914zm133.566-11.715c-.116.131.118-.059 0 0z"/></svg>